<mxfile host="Electron" agent="Mozilla/5.0 (Windows NT 10.0; Win64; x64) AppleWebKit/537.36 (KHTML, like Gecko) draw.io/25.0.2 Chrome/128.0.6613.186 Electron/32.2.5 Safari/537.36" version="25.0.2">
  <diagram name="Page-1" id="2YBvvXClWsGukQMizWep">
    <mxGraphModel dx="1720" dy="1928" grid="1" gridSize="10" guides="1" tooltips="1" connect="1" arrows="1" fold="1" page="1" pageScale="1" pageWidth="850" pageHeight="1100" math="0" shadow="0">
      <root>
        <mxCell id="0" />
        <mxCell id="1" parent="0" />
        <mxCell id="Ihk5jwpTwbqkyYGBOiw1-18" value="Customer" style="shape=umlLifeline;perimeter=lifelinePerimeter;whiteSpace=wrap;html=1;container=0;dropTarget=0;collapsible=0;recursiveResize=0;outlineConnect=0;portConstraint=eastwest;newEdgeStyle={&quot;edgeStyle&quot;:&quot;elbowEdgeStyle&quot;,&quot;elbow&quot;:&quot;vertical&quot;,&quot;curved&quot;:0,&quot;rounded&quot;:0};fillColor=#fad9d5;strokeColor=#ae4132;" vertex="1" parent="1">
          <mxGeometry x="50" y="50" width="100" height="750" as="geometry" />
        </mxCell>
        <mxCell id="Ihk5jwpTwbqkyYGBOiw1-19" value="" style="html=1;points=[];perimeter=orthogonalPerimeter;outlineConnect=0;targetShapes=umlLifeline;portConstraint=eastwest;newEdgeStyle={&quot;edgeStyle&quot;:&quot;elbowEdgeStyle&quot;,&quot;elbow&quot;:&quot;vertical&quot;,&quot;curved&quot;:0,&quot;rounded&quot;:0};fillColor=#fad9d5;strokeColor=#ae4132;" vertex="1" parent="Ihk5jwpTwbqkyYGBOiw1-18">
          <mxGeometry x="45" y="70" width="10" height="650" as="geometry" />
        </mxCell>
        <mxCell id="Ihk5jwpTwbqkyYGBOiw1-20" value="Submit Customization Request ()" style="html=1;verticalAlign=bottom;endArrow=block;edgeStyle=elbowEdgeStyle;elbow=vertical;curved=0;rounded=0;" edge="1" parent="1" source="Ihk5jwpTwbqkyYGBOiw1-19" target="Ihk5jwpTwbqkyYGBOiw1-29">
          <mxGeometry relative="1" as="geometry">
            <mxPoint x="205" y="140" as="sourcePoint" />
            <Array as="points">
              <mxPoint x="190" y="130" />
            </Array>
          </mxGeometry>
        </mxCell>
        <mxCell id="Ihk5jwpTwbqkyYGBOiw1-21" value="Cratopia&#39;s Post Customization Payment Scenerio" style="text;html=1;align=center;verticalAlign=middle;whiteSpace=wrap;rounded=0;fillColor=#fad9d5;strokeColor=#ae4132;" vertex="1" parent="1">
          <mxGeometry x="240" y="-20" width="240" height="30" as="geometry" />
        </mxCell>
        <mxCell id="Ihk5jwpTwbqkyYGBOiw1-22" value="Artist" style="shape=umlLifeline;perimeter=lifelinePerimeter;whiteSpace=wrap;html=1;container=0;dropTarget=0;collapsible=0;recursiveResize=0;outlineConnect=0;portConstraint=eastwest;newEdgeStyle={&quot;edgeStyle&quot;:&quot;elbowEdgeStyle&quot;,&quot;elbow&quot;:&quot;vertical&quot;,&quot;curved&quot;:0,&quot;rounded&quot;:0};fillColor=#fad9d5;strokeColor=#ae4132;" vertex="1" parent="1">
          <mxGeometry x="310" y="50" width="100" height="700" as="geometry" />
        </mxCell>
        <mxCell id="Ihk5jwpTwbqkyYGBOiw1-23" value="" style="html=1;points=[];perimeter=orthogonalPerimeter;outlineConnect=0;targetShapes=umlLifeline;portConstraint=eastwest;newEdgeStyle={&quot;edgeStyle&quot;:&quot;elbowEdgeStyle&quot;,&quot;elbow&quot;:&quot;vertical&quot;,&quot;curved&quot;:0,&quot;rounded&quot;:0};fillColor=#fad9d5;strokeColor=#ae4132;" vertex="1" parent="Ihk5jwpTwbqkyYGBOiw1-22">
          <mxGeometry x="45" y="100" width="10" height="80" as="geometry" />
        </mxCell>
        <mxCell id="Ihk5jwpTwbqkyYGBOiw1-24" value="" style="html=1;points=[];perimeter=orthogonalPerimeter;outlineConnect=0;targetShapes=umlLifeline;portConstraint=eastwest;newEdgeStyle={&quot;edgeStyle&quot;:&quot;elbowEdgeStyle&quot;,&quot;elbow&quot;:&quot;vertical&quot;,&quot;curved&quot;:0,&quot;rounded&quot;:0};fillColor=#fad9d5;strokeColor=#ae4132;" vertex="1" parent="Ihk5jwpTwbqkyYGBOiw1-22">
          <mxGeometry x="45" y="620" width="10" height="80" as="geometry" />
        </mxCell>
        <mxCell id="Ihk5jwpTwbqkyYGBOiw1-25" value="Notify customer of the artist&#39;s offer()" style="html=1;verticalAlign=bottom;endArrow=open;dashed=1;endSize=8;edgeStyle=elbowEdgeStyle;elbow=horizontal;curved=0;rounded=0;" edge="1" parent="1" source="Ihk5jwpTwbqkyYGBOiw1-29" target="Ihk5jwpTwbqkyYGBOiw1-19">
          <mxGeometry x="-0.1444" relative="1" as="geometry">
            <mxPoint x="110" y="270" as="targetPoint" />
            <Array as="points">
              <mxPoint x="190" y="260" />
              <mxPoint x="590" y="260" />
              <mxPoint x="210" y="270" />
            </Array>
            <mxPoint x="315" y="270" as="sourcePoint" />
            <mxPoint x="1" as="offset" />
          </mxGeometry>
        </mxCell>
        <mxCell id="Ihk5jwpTwbqkyYGBOiw1-28" value="make payment()" style="html=1;verticalAlign=bottom;endArrow=block;edgeStyle=elbowEdgeStyle;elbow=vertical;curved=0;rounded=0;" edge="1" parent="1">
          <mxGeometry x="0.1905" relative="1" as="geometry">
            <mxPoint x="110" y="410" as="sourcePoint" />
            <Array as="points">
              <mxPoint x="210" y="410" />
            </Array>
            <mxPoint x="664.5" y="410" as="targetPoint" />
            <mxPoint as="offset" />
          </mxGeometry>
        </mxCell>
        <mxCell id="Ihk5jwpTwbqkyYGBOiw1-29" value="Craftopia Post Customization System" style="shape=umlLifeline;perimeter=lifelinePerimeter;whiteSpace=wrap;html=1;container=0;dropTarget=0;collapsible=0;recursiveResize=0;outlineConnect=0;portConstraint=eastwest;newEdgeStyle={&quot;edgeStyle&quot;:&quot;elbowEdgeStyle&quot;,&quot;elbow&quot;:&quot;vertical&quot;,&quot;curved&quot;:0,&quot;rounded&quot;:0};fillColor=#fad9d5;strokeColor=#ae4132;" vertex="1" parent="1">
          <mxGeometry x="620" y="50" width="100" height="690" as="geometry" />
        </mxCell>
        <mxCell id="Ihk5jwpTwbqkyYGBOiw1-30" value="" style="html=1;points=[];perimeter=orthogonalPerimeter;outlineConnect=0;targetShapes=umlLifeline;portConstraint=eastwest;newEdgeStyle={&quot;edgeStyle&quot;:&quot;elbowEdgeStyle&quot;,&quot;elbow&quot;:&quot;vertical&quot;,&quot;curved&quot;:0,&quot;rounded&quot;:0};fillColor=#fad9d5;strokeColor=#ae4132;" vertex="1" parent="Ihk5jwpTwbqkyYGBOiw1-29">
          <mxGeometry x="45" y="60" width="10" height="620" as="geometry" />
        </mxCell>
        <mxCell id="Ihk5jwpTwbqkyYGBOiw1-33" value="Submit Offer()" style="html=1;verticalAlign=bottom;endArrow=block;edgeStyle=elbowEdgeStyle;elbow=vertical;curved=0;rounded=0;" edge="1" parent="1">
          <mxGeometry x="0.0755" relative="1" as="geometry">
            <mxPoint x="365" y="200" as="sourcePoint" />
            <Array as="points">
              <mxPoint x="499.75" y="200" />
            </Array>
            <mxPoint x="655" y="200" as="targetPoint" />
            <mxPoint as="offset" />
          </mxGeometry>
        </mxCell>
        <mxCell id="Ihk5jwpTwbqkyYGBOiw1-34" value="NotifyArtistWithOfferAcceptance()" style="html=1;verticalAlign=bottom;endArrow=open;dashed=1;endSize=8;edgeStyle=elbowEdgeStyle;elbow=vertical;curved=0;rounded=0;" edge="1" parent="1">
          <mxGeometry x="0.0609" relative="1" as="geometry">
            <mxPoint x="365" y="700" as="targetPoint" />
            <Array as="points">
              <mxPoint x="647.5" y="700" />
            </Array>
            <mxPoint x="660" y="700" as="sourcePoint" />
            <mxPoint as="offset" />
          </mxGeometry>
        </mxCell>
        <mxCell id="Ihk5jwpTwbqkyYGBOiw1-35" value="Accept the Offer()&amp;nbsp;" style="html=1;verticalAlign=bottom;endArrow=block;edgeStyle=elbowEdgeStyle;elbow=vertical;curved=0;rounded=0;" edge="1" parent="1" source="Ihk5jwpTwbqkyYGBOiw1-19" target="Ihk5jwpTwbqkyYGBOiw1-30">
          <mxGeometry x="0.1905" relative="1" as="geometry">
            <mxPoint x="110" y="290" as="sourcePoint" />
            <Array as="points">
              <mxPoint x="250" y="290" />
              <mxPoint x="360" y="360" />
              <mxPoint x="580" y="290" />
              <mxPoint x="210" y="330" />
            </Array>
            <mxPoint x="650" y="330" as="targetPoint" />
            <mxPoint as="offset" />
          </mxGeometry>
        </mxCell>
        <mxCell id="Ihk5jwpTwbqkyYGBOiw1-36" value="" style="html=1;verticalAlign=bottom;endArrow=open;dashed=1;endSize=8;edgeStyle=elbowEdgeStyle;elbow=horizontal;curved=0;rounded=0;" edge="1" parent="1" source="Ihk5jwpTwbqkyYGBOiw1-42">
          <mxGeometry x="0.1034" y="-50" relative="1" as="geometry">
            <mxPoint x="680" y="470" as="targetPoint" />
            <Array as="points">
              <mxPoint x="905" y="470" />
            </Array>
            <mxPoint x="970" y="470" as="sourcePoint" />
            <mxPoint as="offset" />
          </mxGeometry>
        </mxCell>
        <mxCell id="Ihk5jwpTwbqkyYGBOiw1-47" value="return with the payment status" style="edgeLabel;html=1;align=center;verticalAlign=middle;resizable=0;points=[];" vertex="1" connectable="0" parent="Ihk5jwpTwbqkyYGBOiw1-36">
          <mxGeometry x="0.3885" y="1" relative="1" as="geometry">
            <mxPoint x="42" y="-11" as="offset" />
          </mxGeometry>
        </mxCell>
        <mxCell id="Ihk5jwpTwbqkyYGBOiw1-42" value="Payment Gateway" style="shape=umlLifeline;perimeter=lifelinePerimeter;whiteSpace=wrap;html=1;container=0;dropTarget=0;collapsible=0;recursiveResize=0;outlineConnect=0;portConstraint=eastwest;newEdgeStyle={&quot;edgeStyle&quot;:&quot;elbowEdgeStyle&quot;,&quot;elbow&quot;:&quot;vertical&quot;,&quot;curved&quot;:0,&quot;rounded&quot;:0};fillColor=#fad9d5;strokeColor=#ae4132;" vertex="1" parent="1">
          <mxGeometry x="937.5" y="70" width="100" height="730" as="geometry" />
        </mxCell>
        <mxCell id="Ihk5jwpTwbqkyYGBOiw1-44" value="" style="html=1;points=[];perimeter=orthogonalPerimeter;outlineConnect=0;targetShapes=umlLifeline;portConstraint=eastwest;newEdgeStyle={&quot;edgeStyle&quot;:&quot;elbowEdgeStyle&quot;,&quot;elbow&quot;:&quot;vertical&quot;,&quot;curved&quot;:0,&quot;rounded&quot;:0};fillColor=#fad9d5;strokeColor=#ae4132;" vertex="1" parent="Ihk5jwpTwbqkyYGBOiw1-42">
          <mxGeometry x="45" y="330" width="10" height="100" as="geometry" />
        </mxCell>
        <mxCell id="Ihk5jwpTwbqkyYGBOiw1-48" value="processPayment()" style="html=1;verticalAlign=bottom;endArrow=block;curved=0;rounded=0;" edge="1" parent="1">
          <mxGeometry width="80" relative="1" as="geometry">
            <mxPoint x="680" y="430" as="sourcePoint" />
            <mxPoint x="979.5" y="430" as="targetPoint" />
          </mxGeometry>
        </mxCell>
        <mxCell id="Ihk5jwpTwbqkyYGBOiw1-49" value="alt" style="shape=umlFrame;whiteSpace=wrap;html=1;pointerEvents=0;" vertex="1" parent="1">
          <mxGeometry x="90" y="500" width="710" height="300" as="geometry" />
        </mxCell>
        <mxCell id="Ihk5jwpTwbqkyYGBOiw1-50" value="[ if failed ]" style="text;html=1;align=center;verticalAlign=middle;resizable=0;points=[];autosize=1;strokeColor=none;fillColor=none;" vertex="1" parent="1">
          <mxGeometry x="110" y="535" width="70" height="30" as="geometry" />
        </mxCell>
        <mxCell id="Ihk5jwpTwbqkyYGBOiw1-54" value="NotifyPaymentFailure()" style="html=1;verticalAlign=bottom;endArrow=open;dashed=1;endSize=8;edgeStyle=elbowEdgeStyle;elbow=horizontal;curved=0;rounded=0;" edge="1" parent="1" target="Ihk5jwpTwbqkyYGBOiw1-19">
          <mxGeometry x="0.0609" relative="1" as="geometry">
            <mxPoint x="375" y="560" as="targetPoint" />
            <Array as="points">
              <mxPoint x="657.5" y="560" />
            </Array>
            <mxPoint x="662.5" y="560" as="sourcePoint" />
            <mxPoint as="offset" />
          </mxGeometry>
        </mxCell>
        <mxCell id="Ihk5jwpTwbqkyYGBOiw1-56" value="NotifyPaymentSuccessAndOrderConfirmation()" style="html=1;verticalAlign=bottom;endArrow=open;dashed=1;endSize=8;edgeStyle=elbowEdgeStyle;elbow=horizontal;curved=0;rounded=0;" edge="1" parent="1">
          <mxGeometry x="0.1031" y="-10" relative="1" as="geometry">
            <mxPoint x="110" y="649.58" as="targetPoint" />
            <Array as="points">
              <mxPoint x="662.5" y="649.58" />
            </Array>
            <mxPoint x="667.5" y="649.58" as="sourcePoint" />
            <mxPoint as="offset" />
          </mxGeometry>
        </mxCell>
        <mxCell id="Ihk5jwpTwbqkyYGBOiw1-57" value="[ if successed ]" style="text;html=1;align=center;verticalAlign=middle;resizable=0;points=[];autosize=1;strokeColor=none;fillColor=none;" vertex="1" parent="1">
          <mxGeometry x="100" y="608" width="100" height="30" as="geometry" />
        </mxCell>
        <mxCell id="Ihk5jwpTwbqkyYGBOiw1-58" value="" style="endArrow=none;html=1;rounded=0;dashed=1;dashPattern=1 2;entryX=1;entryY=0.338;entryDx=0;entryDy=0;entryPerimeter=0;exitX=0;exitY=0.341;exitDx=0;exitDy=0;exitPerimeter=0;" edge="1" parent="1" source="Ihk5jwpTwbqkyYGBOiw1-49" target="Ihk5jwpTwbqkyYGBOiw1-49">
          <mxGeometry relative="1" as="geometry">
            <mxPoint x="110" y="600" as="sourcePoint" />
            <mxPoint x="270" y="600" as="targetPoint" />
          </mxGeometry>
        </mxCell>
      </root>
    </mxGraphModel>
  </diagram>
</mxfile>
